<svg width="80" height="80" viewBox="0 0 80 80" fill="none" xmlns="http://www.w3.org/2000/svg">
<path d="M80 80H0V0H80V80ZM41.9756 13.1602C38.4238 13.1602 35.2798 13.6164 32.5439 14.5283C29.808 15.3923 27.4795 16.6405 25.5596 18.2725C23.6878 19.8564 22.2714 21.7764 21.3115 24.0322C20.3516 26.2401 19.8721 28.6881 19.8721 31.376V48.2236C19.8721 50.9596 20.3282 53.4559 21.2402 55.7119C22.2002 57.9198 23.5921 59.8397 25.416 61.4717C27.288 63.0557 29.5921 64.2796 32.3281 65.1436C35.1121 66.0076 38.3043 66.4404 41.9043 66.4404C44.7361 66.4404 47.3278 66.2239 49.6797 65.792C52.0317 65.408 54.0243 64.9043 55.6562 64.2803C57.3362 63.6083 58.5116 62.9356 59.1836 62.2637C59.2796 62.1677 59.3281 62.0716 59.3281 61.9756C59.3759 61.8799 59.4003 61.7842 59.4004 61.6885V47.6484H57.96C55.1282 49.0403 52.6083 50.0003 50.4004 50.5283C48.1924 51.0563 45.8397 51.3203 43.3438 51.3203C42.0959 51.3203 41.0397 51.1999 40.1758 50.96C39.36 50.672 38.6881 50.2642 38.1602 49.7363C37.6802 49.2563 37.3201 48.6798 37.0801 48.0078C36.8881 47.2879 36.792 46.4715 36.792 45.5596V32.96C36.792 31.76 36.9599 30.7758 37.2959 30.0078C37.6319 29.1919 38.16 28.592 38.8799 28.208C39.5999 27.776 40.488 27.5596 41.5439 27.5596C42.5039 27.5596 43.392 27.6799 44.208 27.9199C44.5638 28.0187 44.9476 28.1551 45.3604 28.3271V32.8877C45.3604 33.0796 45.408 33.2719 45.5039 33.4639C45.5999 33.6079 45.7921 33.6797 46.0801 33.6797H59.4004V19.3516C59.4004 19.1598 59.3761 19.0159 59.3281 18.9199C59.3281 18.776 59.3039 18.6556 59.2559 18.5596C59.2078 18.4158 59.1116 18.2961 58.9678 18.2002C58.1998 17.4323 57 16.6644 55.3682 15.8965C53.7842 15.1285 51.8401 14.4801 49.5361 13.9521C47.2801 13.4241 44.7596 13.1602 41.9756 13.1602Z" fill="black"/>
</svg>
