<svg width="400" height="100" viewBox="0 0 400 100" fill="none" xmlns="http://www.w3.org/2000/svg">
<g clip-path="url(#clip0_140_389)">
<path d="M387.842 0C394.557 2.80441e-06 400 5.26724 400 11.7647V88.2353C400 94.7327 394.557 100 387.842 100H12.1581C5.44334 100 2.44787e-08 94.7327 0 88.2353V11.7647C0 5.26724 5.44334 7.69793e-08 12.1581 0H387.842ZM44.9551 17.8355C40.6368 17.8355 36.8143 18.3722 33.488 19.4451C30.1617 20.4615 27.3307 21.93 24.9965 23.85C22.7207 25.7134 20.9987 27.9722 19.8316 30.6261C18.6646 33.2236 18.0816 36.1036 18.0816 39.2659V59.0866C18.0816 62.3054 18.6361 65.2422 19.7449 67.8964C20.9121 70.4939 22.6044 72.7526 24.8219 74.6726C27.0979 76.5361 29.8992 77.976 33.2257 78.9925C36.6105 80.0089 40.4916 80.5181 44.8685 80.5181C48.3114 80.5181 51.4624 80.2634 54.3218 79.7553C57.1814 79.3035 59.604 78.7109 61.5881 77.9768C63.6306 77.1862 65.0597 76.3948 65.8767 75.6044C65.9934 75.4914 66.0524 75.3784 66.0524 75.2654C66.1105 75.1528 66.1402 75.0402 66.1403 74.9276V58.4099H64.3891C60.9461 60.0474 57.8824 61.1768 55.1981 61.798C52.5136 62.4192 49.6531 62.7298 46.6186 62.7298C45.1014 62.7298 43.8173 62.5881 42.7669 62.3059C41.7751 61.9671 40.9582 61.4873 40.3164 60.8662C39.7328 60.3015 39.295 59.6233 39.0032 58.8327C38.7697 57.9858 38.6529 57.0253 38.6529 55.9525V41.1294C38.6529 39.7176 38.857 38.5598 39.2655 37.6562C39.674 36.6964 40.3161 35.9906 41.1914 35.5388C42.0668 35.0306 43.1465 34.776 44.4303 34.776C45.5974 34.776 46.6772 34.9175 47.6693 35.1999C48.1019 35.3161 48.5685 35.4766 49.0704 35.6789V41.0444C49.0704 41.2701 49.1283 41.4964 49.2449 41.7222C49.3616 41.8917 49.5953 41.9761 49.9454 41.9761H66.1403V25.1195C66.1403 24.8939 66.1108 24.7246 66.0524 24.6116C66.0524 24.4424 66.023 24.3007 65.9646 24.1878C65.9061 24.0186 65.7892 23.8778 65.6143 23.7649C64.6806 22.8615 63.2219 21.9581 61.2379 21.0547C59.3121 20.1512 56.9485 19.3884 54.1472 18.7672C51.4044 18.146 48.3399 17.8355 44.9551 17.8355ZM94.555 30.5412C89.4781 30.5412 85.16 31.304 81.6003 32.8286C78.0404 34.3533 75.3263 36.6119 73.4588 39.6048C71.5914 42.5978 70.658 46.3532 70.658 50.8708V60.1885C70.658 63.5765 71.1832 66.5409 72.2336 69.082C73.284 71.6232 74.8299 73.7413 76.8723 75.4354C78.9149 77.1295 81.3954 78.4005 84.3133 79.2475C87.2895 80.0945 90.7035 80.5181 94.555 80.5181C99.6321 80.5181 103.951 79.7553 107.511 78.2307C111.071 76.706 113.785 74.4473 115.652 71.4545C117.52 68.4052 118.453 64.6495 118.453 60.1885V50.8708C118.453 47.4826 117.928 44.5173 116.878 41.9761C115.827 39.4351 114.28 37.3179 112.238 35.6239C110.195 33.9299 107.686 32.6588 104.71 31.8118C101.792 30.9647 98.4067 30.5412 94.555 30.5412ZM252.021 30.5412C246.943 30.5412 242.626 31.304 239.066 32.8286C235.506 34.3533 232.793 36.6119 230.925 39.6048C229.058 42.5978 228.124 46.3532 228.124 50.8708V60.1885C228.124 63.5765 228.649 66.5409 229.7 69.082C230.75 71.6232 232.295 73.7413 234.338 75.4354C236.381 77.1295 238.861 78.4005 241.779 79.2475C244.755 80.0945 248.169 80.5181 252.021 80.5181C257.098 80.5181 261.416 79.7553 264.976 78.2307C268.536 76.706 271.251 74.4473 273.119 71.4545C274.986 68.4052 275.919 64.6495 275.919 60.1885V50.8708C275.919 47.4826 275.393 44.5173 274.343 41.9761C273.292 39.4351 271.746 37.3179 269.703 35.6239C267.661 33.9299 265.153 32.6588 262.176 31.8118C259.258 30.9647 255.872 30.5412 252.021 30.5412ZM281.312 32.2358V65.44C281.312 67.8682 281.574 69.9864 282.1 71.7934C282.683 73.5435 283.5 75.0114 284.551 76.1972C285.601 77.3831 286.857 78.2588 288.316 78.8235C289.774 79.3881 291.408 79.6702 293.217 79.6702C295.201 79.6702 296.981 79.3038 298.557 78.5697C300.191 77.8355 301.65 76.8752 302.934 75.6893C304.218 74.4469 305.326 73.0917 306.26 71.6234H308.012V77.8918C308.012 78.1174 308.04 78.2866 308.098 78.3995L308.449 78.7385C308.624 78.7949 308.8 78.8235 308.975 78.8235H327.707V33.1675C327.707 32.9416 327.65 32.7715 327.533 32.6586C327.475 32.5458 327.387 32.4611 327.271 32.4046C327.154 32.2916 326.978 32.2358 326.744 32.2358H308.012V61.9669L307.092 62.5172C306.8 62.6866 306.523 62.8426 306.26 62.9836C305.735 63.2095 305.21 63.3786 304.686 63.4915C304.219 63.548 303.722 63.5765 303.196 63.5765C302.438 63.5765 301.885 63.3787 301.534 62.9836C301.184 62.532 301.008 61.9391 301.008 61.2052V33.1675C301.008 32.9416 300.951 32.7715 300.834 32.6586C300.776 32.5458 300.688 32.4611 300.571 32.4046C300.455 32.2916 300.278 32.2358 300.045 32.2358H281.312ZM158.512 31.3879C156.586 31.3879 154.835 31.6985 153.26 32.3196C151.684 32.9408 150.253 33.8452 148.969 35.0311C147.686 36.2167 146.49 37.6847 145.381 39.4347H143.542V33.1675C143.542 32.9416 143.485 32.7715 143.368 32.6586C143.309 32.5458 143.222 32.4611 143.105 32.4046C142.988 32.2916 142.812 32.2358 142.579 32.2358H123.846V78.3158C123.904 78.4286 123.964 78.5418 124.022 78.6546C124.139 78.7111 124.255 78.7671 124.372 78.8235H143.542V49.0912C144.184 48.6959 144.768 48.3853 145.294 48.1594C145.819 47.8773 146.315 47.7081 146.782 47.6516C147.306 47.5387 147.832 47.4828 148.356 47.4828C149.173 47.4828 149.729 47.6804 150.021 48.0756C150.371 48.4709 150.546 49.0635 150.546 49.8541V77.8918C150.546 78.1174 150.575 78.2866 150.633 78.3995L150.984 78.7385C151.159 78.7949 151.334 78.8235 151.509 78.8235H170.241V44.7714C170.241 42.6259 169.979 40.7344 169.454 39.0969C168.929 37.4028 168.17 35.9904 167.178 34.8609C166.186 33.7315 164.959 32.8844 163.5 32.3196C162.043 31.6986 160.379 31.3879 158.512 31.3879ZM187.277 19.5289V32.2358H175.459V49.5152C175.517 49.6281 175.577 49.7412 175.635 49.8541C175.752 49.9105 175.869 49.9666 175.985 50.0229H187.277V58.9178C187.277 62.1929 187.714 65.1013 188.59 67.6425C189.465 70.1271 190.779 72.1882 192.529 73.8259C194.338 75.4634 196.556 76.7058 199.182 77.5528C201.866 78.3999 204.961 78.8235 208.462 78.8235H222.643C222.935 78.8234 223.167 78.7387 223.342 78.5697C223.517 78.4002 223.606 78.1741 223.606 77.8918V61.0352H211.263C210.505 61.0352 209.832 60.9507 209.249 60.7813C208.725 60.6119 208.258 60.3856 207.849 60.1034C207.557 59.8212 207.324 59.4544 207.149 59.0027C207.032 58.5512 206.973 58.0427 206.973 57.4781V50.0229H223.606V33.1675C223.606 32.8852 223.517 32.6591 223.342 32.4896C223.167 32.3205 222.935 32.2359 222.643 32.2358H206.973V20.4607C206.973 20.2351 206.916 20.0658 206.799 19.9529C206.74 19.8401 206.653 19.7554 206.536 19.6989C206.419 19.586 206.243 19.5289 206.01 19.5289H187.277ZM375.295 31.3879C372.26 31.3879 369.516 32.2636 367.065 34.0142C364.672 35.7648 362.63 38.7293 360.937 42.9079H359.537C359.263 42.114 358.943 41.1819 358.575 40.1126C358.167 38.8702 357.757 37.6565 357.348 36.4706C356.94 35.2851 356.591 34.2969 356.299 33.5065C356.012 32.6751 355.866 32.2512 355.86 32.2358H332.489V48.2445C332.489 48.5268 332.575 48.7529 332.751 48.9224C332.925 49.0916 333.16 49.1762 333.452 49.1762H340.366V61.8819H332.489V77.8918C332.489 78.1741 332.576 78.4002 332.751 78.5697C332.925 78.7388 333.16 78.8235 333.452 78.8235H375.381V62.8137C375.381 62.588 375.323 62.4187 375.206 62.3059C375.148 62.1931 375.06 62.1084 374.945 62.0519C374.828 61.9389 374.652 61.8819 374.418 61.8819H360.062V54.7035C360.616 54.4637 361.2 54.2584 361.813 54.0889C363.097 53.6937 364.381 53.4117 365.664 53.2422C366.948 53.0728 368.233 52.9882 369.517 52.9882C370.976 52.9884 372.492 53.13 374.068 53.4122C375.702 53.6381 377.307 54.0047 378.883 54.5128H380.633V33.4214C380.633 33.1955 380.604 33.0254 380.546 32.9125C380.546 32.7435 380.488 32.6312 380.371 32.5747C380.079 32.2924 379.495 32.0376 378.62 31.8118C377.745 31.5295 376.636 31.3879 375.295 31.3879ZM94.555 47.4828C95.3137 47.4828 95.9273 47.5673 96.3942 47.7367C96.9192 47.8496 97.3572 48.0758 97.7074 48.4145C98.0572 48.7532 98.29 49.2048 98.4067 49.7691C98.5818 50.2773 98.6702 50.9271 98.6702 51.7176V59.3416C98.6702 60.4141 98.5532 61.2608 98.32 61.8819C98.0866 62.5029 97.6486 62.9552 97.0068 63.2376C96.4232 63.4635 95.6055 63.5765 94.555 63.5765C93.7966 63.5765 93.1543 63.5206 92.6292 63.4076C92.1624 63.2382 91.7539 62.9835 91.4039 62.6447C91.0537 62.306 90.7917 61.8822 90.6167 61.3741C90.4999 60.8095 90.441 60.132 90.441 59.3416V51.7176C90.441 50.6447 90.5578 49.7974 90.7912 49.1762C91.083 48.5552 91.5209 48.1314 92.1044 47.9055C92.6879 47.6233 93.5048 47.4828 94.555 47.4828ZM252.021 47.4828C252.779 47.4828 253.393 47.5673 253.86 47.7367C254.385 47.8496 254.823 48.0758 255.173 48.4145C255.523 48.7532 255.756 49.2048 255.872 49.7691C256.047 50.2773 256.136 50.9271 256.136 51.7176V59.3416C256.136 60.4141 256.019 61.2608 255.786 61.8819C255.553 62.5029 255.115 62.9552 254.473 63.2376C253.889 63.4635 253.071 63.5765 252.021 63.5765C251.262 63.5765 250.62 63.5206 250.095 63.4076C249.628 63.2382 249.219 62.9835 248.869 62.6447C248.519 62.306 248.258 61.8822 248.083 61.3741C247.966 60.8095 247.906 60.132 247.906 59.3416V51.7176C247.906 50.6447 248.023 49.7974 248.257 49.1762C248.548 48.5552 248.987 48.1314 249.57 47.9055C250.153 47.6233 250.97 47.4828 252.021 47.4828Z" fill="#1a1a1a"/>
</g>
<defs>
<clipPath id="clip0_140_389">
<rect width="400" height="100" fill="white"/>
</clipPath>
</defs>
</svg>
